# xmcd CD database file
#
# Track frame offsets:
#	150
#	36495
#	72227
#	96683
#	118271
#	135888
#	150347
#	170217
#	191326
#	221227
#	259821
#	293719
#	303019
#
# Disc length: 4632 seconds
#
# Revision: 0
# Processed by: cddbd v1.5.2PL0 Copyright (c) Steve Scherf et al.
# Submitted via: CDex 1.81
#
DISCID=c212160d
DTITLE=Herbie Mann - Milestones Of A Legend CD 6 - African Suite(with Johnny Rae's Afro Jazz Septet) and Flute, Brass, Vibes And Percussion
DYEAR=1959
DGENRE=Jazz
TTITLE0=St. Thomas
TTITLE1=Jungle Fantasy
TTITLE2=Sorimao
TTITLE3=African Suite: Bedouin Part I
TTITLE4=African Suite: Sudan Part II
TTITLE5=African Suite: Ekunda Part III
TTITLE6=African Suite: Guinean Part IV
TTITLE7=Dearly Beloved
TTITLE8=You Stepped Out Of A Dream
TTITLE9=I'll Remember April
TTITLE10=A Ritual
TTITLE11=Fife'n Tambourine Corps
TTITLE12=Autumn Leaves
EXTD=YEAR: 1959
EXTT0=
EXTT1=
EXTT2=
EXTT3=
EXTT4=
EXTT5=
EXTT6=
EXTT7=
EXTT8=
EXTT9=
EXTT10=
EXTT11=
EXTT12=
PLAYORDER=
